  0
SECTION
  2
HEADER
  9
$ACADVER
  1
AC1009
  0
ENDSEC
  0
SECTION
  2
ENTITIES
  0
POLYLINE
  5
90
  8
Layer_0
  62
30
  70
1
  66
1
  10
0
  20
0
  30
0
  0
VERTEX
  5
90
  8
Layer_0
  10
-0.00048828125
  20
142.79985
  0
VERTEX
  5
91
  8
Layer_0
  10
-0.00050354004
  20
-0.00015258789
  0
VERTEX
  5
92
  8
Layer_0
  10
124.69949
  20
-0.00015258789
  0
VERTEX
  5
93
  8
Layer_0
  10
124.69951
  20
142.79984
  0
VERTEX
  5
94
  8
Layer_0
  10
-0.00048828125
  20
142.79985
  0
SEQEND
  0
POLYLINE
  5
96
  8
Layer_1
  62
142
  66
1
  10
0
  20
0
  30
0
  0
VERTEX
  5
96
  8
Layer_1
  10
107.49951
  20
3.5998383
  0
VERTEX
  5
97
  8
Layer_1
  10
17.499496
  20
3.5998383
  0
VERTEX
  5
98
  8
Layer_1
  10
16.717308
  20
3.6196177
  0
VERTEX
  5
99
  8
Layer_1
  10
15.945385
  20
3.6783166
  0
VERTEX
  5
9a
  8
Layer_1
  10
15.184687
  20
3.7749801
  0
VERTEX
  5
9b
  8
Layer_1
  10
14.436167
  20
3.9086528
  0
VERTEX
  5
9c
  8
Layer_1
  10
13.70078
  20
4.0783801
  0
VERTEX
  5
9d
  8
Layer_1
  10
12.979481
  20
4.2832069
  0
VERTEX
  5
9e
  8
Layer_1
  10
12.273226
  20
4.5221777
  0
VERTEX
  5
9f
  8
Layer_1
  10
11.58297
  20
4.7943377
  0
VERTEX
  5
a0
  8
Layer_1
  10
10.909666
  20
5.098732
  0
VERTEX
  5
a1
  8
Layer_1
  10
10.254273
  20
5.4344053
  0
VERTEX
  5
a2
  8
Layer_1
  10
9.6177444
  20
5.8004031
  0
VERTEX
  5
a3
  8
Layer_1
  10
9.0010319
  20
6.1957698
  0
VERTEX
  5
a4
  8
Layer_1
  10
8.4050941
  20
6.6195502
  0
VERTEX
  5
a5
  8
Layer_1
  10
7.8308849
  20
7.0707898
  0
VERTEX
  5
a6
  8
Layer_1
  10
7.2793598
  20
7.5485334
  0
VERTEX
  5
a7
  8
Layer_1
  10
6.7514744
  20
8.0518265
  0
VERTEX
  5
a8
  8
Layer_1
  10
6.2481823
  20
8.5797129
  0
VERTEX
  5
a9
  8
Layer_1
  10
5.7704391
  20
9.1312389
  0
VERTEX
  5
aa
  8
Layer_1
  10
5.3191996
  20
9.7054482
  0
VERTEX
  5
ab
  8
Layer_1
  10
4.8954196
  20
10.301386
  0
VERTEX
  5
ac
  8
Layer_1
  10
4.5000539
  20
10.918098
  0
VERTEX
  5
ad
  8
Layer_1
  10
4.1340566
  20
11.554627
  0
VERTEX
  5
ae
  8
Layer_1
  10
3.7983837
  20
12.21002
  0
VERTEX
  5
af
  8
Layer_1
  10
3.4939902
  20
12.883324
  0
VERTEX
  5
b0
  8
Layer_1
  10
3.2218308
  20
13.57358
  0
VERTEX
  5
b1
  8
Layer_1
  10
2.982861
  20
14.279835
  0
VERTEX
  5
b2
  8
Layer_1
  10
2.7780354
  20
15.001134
  0
VERTEX
  5
b3
  8
Layer_1
  10
2.6083093
  20
15.736521
  0
VERTEX
  5
b4
  8
Layer_1
  10
2.4746375
  20
16.485041
  0
VERTEX
  5
b5
  8
Layer_1
  10
2.3779755
  20
17.245739
  0
VERTEX
  5
b6
  8
Layer_1
  10
2.3192778
  20
18.017662
  0
VERTEX
  5
b7
  8
Layer_1
  10
2.2994995
  20
18.79985
  0
VERTEX
  5
b8
  8
Layer_1
  10
2.2994995
  20
53.79985
  0
VERTEX
  5
b9
  8
Layer_1
  10
2.3192778
  20
54.582039
  0
VERTEX
  5
ba
  8
Layer_1
  10
2.3779755
  20
55.353958
  0
VERTEX
  5
bb
  8
Layer_1
  10
2.4746375
  20
56.114662
  0
VERTEX
  5
bc
  8
Layer_1
  10
2.6083093
  20
56.863178
  0
VERTEX
  5
bd
  8
Layer_1
  10
2.7780354
  20
57.598564
  0
VERTEX
  5
be
  8
Layer_1
  10
2.982861
  20
58.319862
  0
VERTEX
  5
bf
  8
Layer_1
  10
3.2218308
  20
59.026119
  0
VERTEX
  5
c0
  8
Layer_1
  10
3.4939902
  20
59.716377
  0
VERTEX
  5
c1
  8
Layer_1
  10
3.7983837
  20
60.389679
  0
VERTEX
  5
c2
  8
Layer_1
  10
4.1340566
  20
61.045074
  0
VERTEX
  5
c3
  8
Layer_1
  10
4.5000539
  20
61.681602
  0
VERTEX
  5
c4
  8
Layer_1
  10
4.8954196
  20
62.298317
  0
VERTEX
  5
c5
  8
Layer_1
  10
5.3191996
  20
62.894257
  0
VERTEX
  5
c6
  8
Layer_1
  10
5.7704391
  20
63.468468
  0
VERTEX
  5
c7
  8
Layer_1
  10
6.2481823
  20
64.019989
  0
VERTEX
  5
c8
  8
Layer_1
  10
6.7514744
  20
64.547874
  0
VERTEX
  5
c9
  8
Layer_1
  10
7.2793598
  20
65.051163
  0
VERTEX
  5
ca
  8
Layer_1
  10
7.8308849
  20
65.528915
  0
VERTEX
  5
cb
  8
Layer_1
  10
8.4050941
  20
65.980148
  0
VERTEX
  5
cc
  8
Layer_1
  10
9.0010319
  20
66.403931
  0
VERTEX
  5
cd
  8
Layer_1
  10
9.6177444
  20
66.799294
  0
VERTEX
  5
ce
  8
Layer_1
  10
10.254273
  20
67.165298
  0
VERTEX
  5
cf
  8
Layer_1
  10
10.909666
  20
67.500969
  0
VERTEX
  5
d0
  8
Layer_1
  10
11.58297
  20
67.805359
  0
VERTEX
  5
d1
  8
Layer_1
  10
12.273226
  20
68.077515
  0
VERTEX
  5
d2
  8
Layer_1
  10
12.979481
  20
68.316483
  0
VERTEX
  5
d3
  8
Layer_1
  10
13.70078
  20
68.521309
  0
VERTEX
  5
d4
  8
Layer_1
  10
14.436167
  20
68.69104
  0
VERTEX
  5
d5
  8
Layer_1
  10
15.184687
  20
68.824715
  0
VERTEX
  5
d6
  8
Layer_1
  10
15.945385
  20
68.921371
  0
VERTEX
  5
d7
  8
Layer_1
  10
16.717308
  20
68.980072
  0
VERTEX
  5
d8
  8
Layer_1
  10
17.499496
  20
68.999847
  0
VERTEX
  5
d9
  8
Layer_1
  10
22.399506
  20
68.999847
  0
VERTEX
  5
da
  8
Layer_1
  10
22.399506
  20
71.999847
  0
VERTEX
  5
db
  8
Layer_1
  10
30.099503
  20
71.999847
  0
VERTEX
  5
dc
  8
Layer_1
  10
30.099503
  20
68.999847
  0
VERTEX
  5
dd
  8
Layer_1
  10
94.899506
  20
68.999847
  0
VERTEX
  5
de
  8
Layer_1
  10
94.899506
  20
71.999847
  0
VERTEX
  5
df
  8
Layer_1
  10
102.59949
  20
71.999847
  0
VERTEX
  5
e0
  8
Layer_1
  10
102.59949
  20
68.999847
  0
VERTEX
  5
e1
  8
Layer_1
  10
107.49951
  20
68.999847
  0
VERTEX
  5
e2
  8
Layer_1
  10
108.2817
  20
68.980072
  0
VERTEX
  5
e3
  8
Layer_1
  10
109.05362
  20
68.921371
  0
VERTEX
  5
e4
  8
Layer_1
  10
109.81432
  20
68.824715
  0
VERTEX
  5
e5
  8
Layer_1
  10
110.56284
  20
68.69104
  0
VERTEX
  5
e6
  8
Layer_1
  10
111.29822
  20
68.521309
  0
VERTEX
  5
e7
  8
Layer_1
  10
112.01952
  20
68.316483
  0
VERTEX
  5
e8
  8
Layer_1
  10
112.72577
  20
68.077515
  0
VERTEX
  5
e9
  8
Layer_1
  10
113.41603
  20
67.805359
  0
VERTEX
  5
ea
  8
Layer_1
  10
114.08932
  20
67.500969
  0
VERTEX
  5
eb
  8
Layer_1
  10
114.74472
  20
67.165298
  0
VERTEX
  5
ec
  8
Layer_1
  10
115.38126
  20
66.799294
  0
VERTEX
  5
ed
  8
Layer_1
  10
115.99796
  20
66.403931
  0
VERTEX
  5
ee
  8
Layer_1
  10
116.59389
  20
65.980148
  0
VERTEX
  5
ef
  8
Layer_1
  10
117.16811
  20
65.528915
  0
VERTEX
  5
f0
  8
Layer_1
  10
117.71964
  20
65.051163
  0
VERTEX
  5
f1
  8
Layer_1
  10
118.24753
  20
64.547874
  0
VERTEX
  5
f2
  8
Layer_1
  10
118.75082
  20
64.019989
  0
VERTEX
  5
f3
  8
Layer_1
  10
119.22856
  20
63.468468
  0
VERTEX
  5
f4
  8
Layer_1
  10
119.67981
  20
62.894257
  0
VERTEX
  5
f5
  8
Layer_1
  10
120.10358
  20
62.298317
  0
VERTEX
  5
f6
  8
Layer_1
  10
120.49895
  20
61.681602
  0
VERTEX
  5
f7
  8
Layer_1
  10
120.86494
  20
61.045074
  0
VERTEX
  5
f8
  8
Layer_1
  10
121.20062
  20
60.389679
  0
VERTEX
  5
f9
  8
Layer_1
  10
121.50501
  20
59.716377
  0
VERTEX
  5
fa
  8
Layer_1
  10
121.77716
  20
59.026119
  0
VERTEX
  5
fb
  8
Layer_1
  10
122.01613
  20
58.319862
  0
VERTEX
  5
fc
  8
Layer_1
  10
122.22095
  20
57.598564
  0
VERTEX
  5
fd
  8
Layer_1
  10
122.39069
  20
56.863178
  0
VERTEX
  5
fe
  8
Layer_1
  10
122.52436
  20
56.114662
  0
VERTEX
  5
ff
  8
Layer_1
  10
122.62102
  20
55.353958
  0
VERTEX
  5
100
  8
Layer_1
  10
122.67972
  20
54.582039
  0
VERTEX
  5
101
  8
Layer_1
  10
122.6995
  20
53.79985
  0
VERTEX
  5
102
  8
Layer_1
  10
122.6995
  20
18.79985
  0
VERTEX
  5
103
  8
Layer_1
  10
122.67973
  20
18.017662
  0
VERTEX
  5
104
  8
Layer_1
  10
122.62103
  20
17.245739
  0
VERTEX
  5
105
  8
Layer_1
  10
122.52438
  20
16.485041
  0
VERTEX
  5
106
  8
Layer_1
  10
122.3907
  20
15.736521
  0
VERTEX
  5
107
  8
Layer_1
  10
122.22097
  20
15.001134
  0
VERTEX
  5
108
  8
Layer_1
  10
122.01614
  20
14.279835
  0
VERTEX
  5
109
  8
Layer_1
  10
121.77718
  20
13.57358
  0
VERTEX
  5
10a
  8
Layer_1
  10
121.50502
  20
12.883324
  0
VERTEX
  5
10b
  8
Layer_1
  10
121.20063
  20
12.21002
  0
VERTEX
  5
10c
  8
Layer_1
  10
120.86496
  20
11.554627
  0
VERTEX
  5
10d
  8
Layer_1
  10
120.49895
  20
10.918098
  0
VERTEX
  5
10e
  8
Layer_1
  10
120.10359
  20
10.301386
  0
VERTEX
  5
10f
  8
Layer_1
  10
119.67981
  20
9.7054482
  0
VERTEX
  5
110
  8
Layer_1
  10
119.22857
  20
9.1312389
  0
VERTEX
  5
111
  8
Layer_1
  10
118.75082
  20
8.5797138
  0
VERTEX
  5
112
  8
Layer_1
  10
118.24753
  20
8.0518284
  0
VERTEX
  5
113
  8
Layer_1
  10
117.71964
  20
7.5485363
  0
VERTEX
  5
114
  8
Layer_1
  10
117.16812
  20
7.0707932
  0
VERTEX
  5
115
  8
Layer_1
  10
116.59391
  20
6.6195536
  0
VERTEX
  5
116
  8
Layer_1
  10
115.99797
  20
6.1957736
  0
VERTEX
  5
117
  8
Layer_1
  10
115.38126
  20
5.8004074
  0
VERTEX
  5
118
  8
Layer_1
  10
114.74474
  20
5.4344101
  0
VERTEX
  5
119
  8
Layer_1
  10
114.08934
  20
5.0987372
  0
VERTEX
  5
11a
  8
Layer_1
  10
113.41604
  20
4.7943439
  0
VERTEX
  5
11b
  8
Layer_1
  10
112.72578
  20
4.5221844
  0
VERTEX
  5
11c
  8
Layer_1
  10
112.01952
  20
4.283215
  0
VERTEX
  5
11d
  8
Layer_1
  10
111.29822
  20
4.0783892
  0
VERTEX
  5
11e
  8
Layer_1
  10
110.56284
  20
3.9086633
  0
VERTEX
  5
11f
  8
Layer_1
  10
109.81432
  20
3.7749915
  0
VERTEX
  5
120
  8
Layer_1
  10
109.05363
  20
3.6783295
  0
VERTEX
  5
121
  8
Layer_1
  10
108.28171
  20
3.6196318
  0
VERTEX
  5
122
  8
Layer_1
  10
107.49951
  20
3.5998535
  0
SEQEND
  0
POLYLINE
  5
124
  8
Layer_1
  62
142
  70
1
  66
1
  10
0
  20
0
  30
0
  0
VERTEX
  5
124
  8
Layer_1
  10
102.39991
  20
140.79974
  0
VERTEX
  5
125
  8
Layer_1
  10
95.099907
  20
140.79974
  0
VERTEX
  5
126
  8
Layer_1
  10
95.099907
  20
137.79974
  0
VERTEX
  5
127
  8
Layer_1
  10
29.899902
  20
137.79974
  0
VERTEX
  5
128
  8
Layer_1
  10
29.899902
  20
140.79974
  0
VERTEX
  5
129
  8
Layer_1
  10
22.599899
  20
140.79974
  0
VERTEX
  5
12a
  8
Layer_1
  10
22.599899
  20
137.79974
  0
VERTEX
  5
12b
  8
Layer_1
  10
17.499908
  20
137.79974
  0
VERTEX
  5
12c
  8
Layer_1
  10
16.72801
  20
137.78023
  0
VERTEX
  5
12d
  8
Layer_1
  10
15.966246
  20
137.72231
  0
VERTEX
  5
12e
  8
Layer_1
  10
15.215555
  20
137.62692
  0
VERTEX
  5
12f
  8
Layer_1
  10
14.476885
  20
137.495
  0
VERTEX
  5
130
  8
Layer_1
  10
13.751175
  20
137.3275
  0
VERTEX
  5
131
  8
Layer_1
  10
13.039368
  20
137.12537
  0
VERTEX
  5
132
  8
Layer_1
  10
12.342405
  20
136.88954
  0
VERTEX
  5
133
  8
Layer_1
  10
11.661232
  20
136.62097
  0
VERTEX
  5
134
  8
Layer_1
  10
10.996789
  20
136.32059
  0
VERTEX
  5
135
  8
Layer_1
  10
10.350019
  20
135.98932
  0
VERTEX
  5
136
  8
Layer_1
  10
9.7218628
  20
135.62814
  0
VERTEX
  5
137
  8
Layer_1
  10
9.113266
  20
135.23798
  0
VERTEX
  5
138
  8
Layer_1
  10
8.5251694
  20
134.81976
  0
VERTEX
  5
139
  8
Layer_1
  10
7.9585152
  20
134.37448
  0
VERTEX
  5
13a
  8
Layer_1
  10
7.414247
  20
133.90302
  0
VERTEX
  5
13b
  8
Layer_1
  10
6.8933067
  20
133.40634
  0
VERTEX
  5
13c
  8
Layer_1
  10
6.3966365
  20
132.88541
  0
VERTEX
  5
13d
  8
Layer_1
  10
5.9251795
  20
132.34113
  0
VERTEX
  5
13e
  8
Layer_1
  10
5.4798775
  20
131.77448
  0
VERTEX
  5
13f
  8
Layer_1
  10
5.0616732
  20
131.18637
  0
VERTEX
  5
140
  8
Layer_1
  10
4.6715088
  20
130.57776
  0
VERTEX
  5
141
  8
Layer_1
  10
4.3103275
  20
129.94962
  0
VERTEX
  5
142
  8
Layer_1
  10
3.9790716
  20
129.30286
  0
VERTEX
  5
143
  8
Layer_1
  10
3.6786828
  20
128.63841
  0
VERTEX
  5
144
  8
Layer_1
  10
3.4101048
  20
127.95724
  0
VERTEX
  5
145
  8
Layer_1
  10
3.1742787
  20
127.26028
  0
VERTEX
  5
146
  8
Layer_1
  10
2.9721482
  20
126.54848
  0
VERTEX
  5
147
  8
Layer_1
  10
2.8046551
  20
125.82277
  0
VERTEX
  5
148
  8
Layer_1
  10
2.6727421
  20
125.08409
  0
VERTEX
  5
149
  8
Layer_1
  10
2.5773516
  20
124.3334
  0
VERTEX
  5
14a
  8
Layer_1
  10
2.5194263
  20
123.57164
  0
VERTEX
  5
14b
  8
Layer_1
  10
2.4999084
  20
122.79974
  0
VERTEX
  5
14c
  8
Layer_1
  10
2.4999084
  20
87.799744
  0
VERTEX
  5
14d
  8
Layer_1
  10
2.5194263
  20
87.027847
  0
VERTEX
  5
14e
  8
Layer_1
  10
2.5773516
  20
86.266083
  0
VERTEX
  5
14f
  8
Layer_1
  10
2.6727421
  20
85.515396
  0
VERTEX
  5
150
  8
Layer_1
  10
2.8046551
  20
84.776718
  0
VERTEX
  5
151
  8
Layer_1
  10
2.9721482
  20
84.05101
  0
VERTEX
  5
152
  8
Layer_1
  10
3.1742787
  20
83.339203
  0
VERTEX
  5
153
  8
Layer_1
  10
3.4101048
  20
82.642242
  0
VERTEX
  5
154
  8
Layer_1
  10
3.6786828
  20
81.961067
  0
VERTEX
  5
155
  8
Layer_1
  10
3.9790716
  20
81.296623
  0
VERTEX
  5
156
  8
Layer_1
  10
4.3103275
  20
80.649857
  0
VERTEX
  5
157
  8
Layer_1
  10
4.6715088
  20
80.021698
  0
VERTEX
  5
158
  8
Layer_1
  10
5.0616732
  20
79.413101
  0
VERTEX
  5
159
  8
Layer_1
  10
5.4798775
  20
78.825005
  0
VERTEX
  5
15a
  8
Layer_1
  10
5.9251795
  20
78.258354
  0
VERTEX
  5
15b
  8
Layer_1
  10
6.3966365
  20
77.714088
  0
VERTEX
  5
15c
  8
Layer_1
  10
6.8933067
  20
77.193146
  0
VERTEX
  5
15d
  8
Layer_1
  10
7.414247
  20
76.696472
  0
VERTEX
  5
15e
  8
Layer_1
  10
7.9585152
  20
76.225021
  0
VERTEX
  5
15f
  8
Layer_1
  10
8.5251694
  20
75.779709
  0
VERTEX
  5
160
  8
Layer_1
  10
9.113266
  20
75.361504
  0
VERTEX
  5
161
  8
Layer_1
  10
9.7218628
  20
74.971344
  0
VERTEX
  5
162
  8
Layer_1
  10
10.350019
  20
74.610161
  0
VERTEX
  5
163
  8
Layer_1
  10
10.996789
  20
74.2789
  0
VERTEX
  5
164
  8
Layer_1
  10
11.661232
  20
73.978516
  0
VERTEX
  5
165
  8
Layer_1
  10
12.342405
  20
73.709946
  0
VERTEX
  5
166
  8
Layer_1
  10
13.039368
  20
73.474121
  0
VERTEX
  5
167
  8
Layer_1
  10
13.751175
  20
73.271988
  0
VERTEX
  5
168
  8
Layer_1
  10
14.476885
  20
73.104492
  0
VERTEX
  5
169
  8
Layer_1
  10
15.215555
  20
72.97258
  0
VERTEX
  5
16a
  8
Layer_1
  10
15.966246
  20
72.877182
  0
VERTEX
  5
16b
  8
Layer_1
  10
16.72801
  20
72.81926
  0
VERTEX
  5
16c
  8
Layer_1
  10
17.499908
  20
72.799744
  0
VERTEX
  5
16d
  8
Layer_1
  10
107.4999
  20
72.799744
  0
VERTEX
  5
16e
  8
Layer_1
  10
108.2718
  20
72.81926
  0
VERTEX
  5
16f
  8
Layer_1
  10
109.03357
  20
72.877182
  0
VERTEX
  5
170
  8
Layer_1
  10
109.78426
  20
72.97258
  0
VERTEX
  5
171
  8
Layer_1
  10
110.52293
  20
73.104492
  0
VERTEX
  5
172
  8
Layer_1
  10
111.24863
  20
73.271988
  0
VERTEX
  5
173
  8
Layer_1
  10
111.96044
  20
73.474121
  0
VERTEX
  5
174
  8
Layer_1
  10
112.6574
  20
73.709946
  0
VERTEX
  5
175
  8
Layer_1
  10
113.33858
  20
73.978516
  0
VERTEX
  5
176
  8
Layer_1
  10
114.00302
  20
74.2789
  0
VERTEX
  5
177
  8
Layer_1
  10
114.64979
  20
74.610153
  0
VERTEX
  5
178
  8
Layer_1
  10
115.27794
  20
74.971336
  0
VERTEX
  5
179
  8
Layer_1
  10
115.88654
  20
75.361496
  0
VERTEX
  5
17a
  8
Layer_1
  10
116.47463
  20
75.779701
  0
VERTEX
  5
17b
  8
Layer_1
  10
117.04129
  20
76.225006
  0
VERTEX
  5
17c
  8
Layer_1
  10
117.58556
  20
76.696457
  0
VERTEX
  5
17d
  8
Layer_1
  10
118.10651
  20
77.19313
  0
VERTEX
  5
17e
  8
Layer_1
  10
118.60318
  20
77.714073
  0
VERTEX
  5
17f
  8
Layer_1
  10
119.07463
  20
78.258339
  0
VERTEX
  5
180
  8
Layer_1
  10
119.51994
  20
78.824989
  0
VERTEX
  5
181
  8
Layer_1
  10
119.93814
  20
79.413086
  0
VERTEX
  5
182
  8
Layer_1
  10
120.3283
  20
80.021683
  0
VERTEX
  5
183
  8
Layer_1
  10
120.68948
  20
80.649841
  0
VERTEX
  5
184
  8
Layer_1
  10
121.02074
  20
81.296608
  0
VERTEX
  5
185
  8
Layer_1
  10
121.32113
  20
81.961052
  0
VERTEX
  5
186
  8
Layer_1
  10
121.58971
  20
82.642227
  0
VERTEX
  5
187
  8
Layer_1
  10
121.82553
  20
83.339188
  0
VERTEX
  5
188
  8
Layer_1
  10
122.02766
  20
84.050995
  0
VERTEX
  5
189
  8
Layer_1
  10
122.19516
  20
84.776703
  0
VERTEX
  5
18a
  8
Layer_1
  10
122.32707
  20
85.515381
  0
VERTEX
  5
18b
  8
Layer_1
  10
122.42245
  20
86.266068
  0
VERTEX
  5
18c
  8
Layer_1
  10
122.48038
  20
87.027832
  0
VERTEX
  5
18d
  8
Layer_1
  10
122.4999
  20
87.799728
  0
VERTEX
  5
18e
  8
Layer_1
  10
122.49991
  20
122.79973
  0
VERTEX
  5
18f
  8
Layer_1
  10
122.48039
  20
123.57162
  0
VERTEX
  5
190
  8
Layer_1
  10
122.42247
  20
124.33339
  0
VERTEX
  5
191
  8
Layer_1
  10
122.32707
  20
125.08408
  0
VERTEX
  5
192
  8
Layer_1
  10
122.19516
  20
125.82275
  0
VERTEX
  5
193
  8
Layer_1
  10
122.02766
  20
126.54846
  0
VERTEX
  5
194
  8
Layer_1
  10
121.82553
  20
127.26027
  0
VERTEX
  5
195
  8
Layer_1
  10
121.58971
  20
127.95723
  0
VERTEX
  5
196
  8
Layer_1
  10
121.32114
  20
128.6384
  0
VERTEX
  5
197
  8
Layer_1
  10
121.02075
  20
129.30284
  0
VERTEX
  5
198
  8
Layer_1
  10
120.68949
  20
129.94962
  0
VERTEX
  5
199
  8
Layer_1
  10
120.32831
  20
130.57776
  0
VERTEX
  5
19a
  8
Layer_1
  10
119.93815
  20
131.18637
  0
VERTEX
  5
19b
  8
Layer_1
  10
119.51994
  20
131.77448
  0
VERTEX
  5
19c
  8
Layer_1
  10
119.07463
  20
132.34113
  0
VERTEX
  5
19d
  8
Layer_1
  10
118.60318
  20
132.88541
  0
VERTEX
  5
19e
  8
Layer_1
  10
118.10651
  20
133.40634
  0
VERTEX
  5
19f
  8
Layer_1
  10
117.58556
  20
133.90302
  0
VERTEX
  5
1a0
  8
Layer_1
  10
117.0413
  20
134.37448
  0
VERTEX
  5
1a1
  8
Layer_1
  10
116.47465
  20
134.81976
  0
VERTEX
  5
1a2
  8
Layer_1
  10
115.88655
  20
135.23798
  0
VERTEX
  5
1a3
  8
Layer_1
  10
115.27795
  20
135.62814
  0
VERTEX
  5
1a4
  8
Layer_1
  10
114.6498
  20
135.98932
  0
VERTEX
  5
1a5
  8
Layer_1
  10
114.00303
  20
136.32059
  0
VERTEX
  5
1a6
  8
Layer_1
  10
113.33858
  20
136.62097
  0
VERTEX
  5
1a7
  8
Layer_1
  10
112.65741
  20
136.88954
  0
VERTEX
  5
1a8
  8
Layer_1
  10
111.96045
  20
137.12537
  0
VERTEX
  5
1a9
  8
Layer_1
  10
111.24864
  20
137.3275
  0
VERTEX
  5
1aa
  8
Layer_1
  10
110.52293
  20
137.495
  0
VERTEX
  5
1ab
  8
Layer_1
  10
109.78426
  20
137.62692
  0
VERTEX
  5
1ac
  8
Layer_1
  10
109.03357
  20
137.72231
  0
VERTEX
  5
1ad
  8
Layer_1
  10
108.2718
  20
137.78023
  0
VERTEX
  5
1ae
  8
Layer_1
  10
107.49991
  20
137.79974
  0
VERTEX
  5
1af
  8
Layer_1
  10
102.39991
  20
137.79974
  0
VERTEX
  5
1b0
  8
Layer_1
  10
102.39991
  20
140.79974
  0
SEQEND
  0
ENDSEC
  0
EOF
